<svg id="Layer_1" data-name="Layer 1" xmlns="http://www.w3.org/2000/svg" xmlns:xlink="http://www.w3.org/1999/xlink" viewBox="0 0 580 580"><defs><style>.cls-1{fill:url(#linear-gradient_6);}.cls-2{fill:url(#linear-gradient_6-2);}.cls-3{fill:url(#linear-gradient_6-3);}</style><linearGradient id="linear-gradient_6" x1="163.82" y1="311.3" x2="297.35" y2="311.3" gradientUnits="userSpaceOnUse"><stop offset="0.29" stop-color="#0966fa"/><stop offset="1" stop-color="#2ad2ff"/></linearGradient><linearGradient id="linear-gradient_6-2" x1="397.5" y1="347.48" x2="335.46" y2="241.98" xlink:href="#linear-gradient_6"/><linearGradient id="linear-gradient_6-3" x1="309.39" y1="139.76" x2="246.08" y2="245.26" xlink:href="#linear-gradient_6"/></defs><path d="M108.72,450.94H75.81a13.35,13.35,0,0,1-13.35-13.35V402.82a13.35,13.35,0,0,1,13.35-13.35h32.91v8.59h-34a2,2,0,0,0-2,2v40.12a2,2,0,0,0,2,2h34Z"/><path d="M129.91,450.94h-9.63V389.47h9.63Z"/><path d="M172.18,450.94H153.7a13.35,13.35,0,0,1-13.35-13.35V402.43h9.26v38.36a2,2,0,0,0,2,2H173.9a2,2,0,0,0,2-2V402.43h9.63v35.16A13.35,13.35,0,0,1,172.18,450.94Z"/><path d="M226,450.94H193v-8.15h34.66a2,2,0,0,0,2-2v-8.21a2,2,0,0,0-2-2H206.36A13.35,13.35,0,0,1,193,417.22v-1.44a13.35,13.35,0,0,1,13.35-13.35h32.57V411H204.27a2,2,0,0,0-2,2v7.47a2,2,0,0,0,2,2H226a13.35,13.35,0,0,1,13.35,13.35v1.81A13.35,13.35,0,0,1,226,450.94Z"/><path d="M243.9,402.43h5.4a2,2,0,0,0,2-2V391h9.26v9.48a2,2,0,0,0,2,2h16.89v8.89H262.56a2,2,0,0,0-2,2v27.1a2,2,0,0,0,2,2h16.52v8.52H264.66a13.36,13.36,0,0,1-13.36-13.35V413.32a2,2,0,0,0-2-2h-5.4Z"/><path d="M333.11,450.94H299.8a13.35,13.35,0,0,1-13.35-13.35V415.78a13.35,13.35,0,0,1,13.35-13.35h20a13.35,13.35,0,0,1,13.35,13.35v.7a13.35,13.35,0,0,1-13.35,13.35H297.71a2,2,0,0,0-2,2v8.58a2,2,0,0,0,2,2h35.4Zm-9.26-31.63v-6a2,2,0,0,0-2-2H297.71a2,2,0,0,0-2,2v6a2,2,0,0,0,2,2h24.14A2,2,0,0,0,323.85,419.31Z"/><path d="M372.66,411.32H352.82a2,2,0,0,0-2,2v37.62h-9.62V415.78a13.35,13.35,0,0,1,13.35-13.35h18.12Z"/><path d="M422.66,450.94H413.4V413.32a2,2,0,0,0-2-2H390.23a2,2,0,0,0-2,2v37.62H379V415.78a13.35,13.35,0,0,1,13.35-13.35h17a13.35,13.35,0,0,1,13.35,13.35Z"/><path d="M478.14,450.94H444.83a13.35,13.35,0,0,1-13.35-13.35V415.78a13.35,13.35,0,0,1,13.35-13.35h19.95a13.36,13.36,0,0,1,13.36,13.35v.7a13.36,13.36,0,0,1-13.36,13.35h-22a2,2,0,0,0-2,2v8.58a2,2,0,0,0,2,2h35.4Zm-9.26-31.63v-6a2,2,0,0,0-2-2H442.74a2,2,0,0,0-2,2v6a2,2,0,0,0,2,2h24.14A2,2,0,0,0,468.88,419.31Z"/><path d="M482,402.43h5.4a2,2,0,0,0,2-2V391h9.26v9.48a2,2,0,0,0,2,2h16.88v8.89H500.66a2,2,0,0,0-2,2v27.1a2,2,0,0,0,2,2h16.51v8.52H502.75a13.35,13.35,0,0,1-13.35-13.35V413.32a2,2,0,0,0-2-2H482Z"/><path class="cls-1" d="M198.22,269.33,167.7,287a7.79,7.79,0,0,0-3.88,6.73v35.24a7.77,7.77,0,0,0,3.88,6.73l30.52,17.62a7.76,7.76,0,0,0,7.77,0l32.6-18.82a7.68,7.68,0,0,1,3.88-1h47.11a7.77,7.77,0,0,0,7.77-7.77V297a7.76,7.76,0,0,0-7.77-7.77H242.47a7.78,7.78,0,0,1-3.88-1L206,269.33A7.81,7.81,0,0,0,198.22,269.33Z"/><path class="cls-2" d="M376.87,268.28l-20.28-32.6a7.77,7.77,0,0,0-10.48-2.63l-24.82,14.34a7.77,7.77,0,0,0-2.71,10.83l19.86,31.93a7.84,7.84,0,0,1,1.17,4.11v37.5a7.77,7.77,0,0,0,3.88,6.73L374,356.11a7.76,7.76,0,0,0,7.77,0l30.52-17.62a7.77,7.77,0,0,0,3.88-6.73V296.52a7.79,7.79,0,0,0-3.88-6.73L379.58,270.9A7.64,7.64,0,0,1,376.87,268.28Z"/><path class="cls-3" d="M291.67,215.32l32.73-18.9a7.77,7.77,0,0,0,3.89-6.73V154.45a7.76,7.76,0,0,0-3.89-6.73L293.88,130.1a7.74,7.74,0,0,0-7.76,0L255.6,147.72a7.76,7.76,0,0,0-3.89,6.73v37.48a7.76,7.76,0,0,1-1.19,4.14l-20.83,33.1A7.79,7.79,0,0,0,232.38,240l24.82,14.33a7.78,7.78,0,0,0,10.47-2.59L289,217.91A7.67,7.67,0,0,1,291.67,215.32Z"/></svg>
